<svg width="186" height="31" viewBox="0 0 186 31" fill="none" xmlns="http://www.w3.org/2000/svg">
  <path d="M8.89998 1.76445C5.09998 3.76445 2.39998 6.46445 3.19998 7.36445C3.49998 7.66445 5.39998 6.76445 7.49998 5.36445C14.2 0.764452 21.2 1.06445 27.5 5.96445C30.4 8.16445 32 7.76445 30 5.26445C25.7 0.0644517 15.3 -1.63555 8.89998 1.76445Z" fill="#525C65"/>
  <path d="M0 8.66448C0 9.26448 0.4 9.76448 0.9 9.76448C1.4 9.76448 2.3 11.1645 2.9 12.7645C4.6 17.6645 9.9 18.6645 14.2 14.9645C17.2 12.3645 16.2 11.1645 10.3 9.86448C7.1 9.16448 3.5 8.36448 2.3 8.06448C1 7.76448 0 8.06448 0 8.66448ZM6.4 12.3645C6.8 13.5645 7.9 13.8645 10.1 13.5645C12.7 13.1645 12.9 13.2645 11.7 14.5645C9.9 16.3645 6.4 15.3645 5 12.6645C4.4 11.5645 4.3 10.7645 4.9 10.7645C5.4 10.7645 6.1 11.4645 6.4 12.3645Z" fill="#525C65"/>
  <path d="M24.8 9.46448C17.8 11.0645 16.7 12.3645 19.8 14.9645C24.1 18.6645 29.4 17.6645 31.1 12.7645C31.7 11.1645 32.6 9.76448 33.1 9.76448C33.6 9.76448 34 9.26448 34 8.76448C34 7.56448 33.1 7.56448 24.8 9.46448ZM29 12.6645C27.6 15.3645 24.1 16.3645 22.3 14.5645C21.1 13.2645 21.3 13.1645 23.9 13.5645C26.1 13.8645 27.2 13.5645 27.6 12.3645C27.9 11.4645 28.6 10.7645 29.1 10.7645C29.7 10.7645 29.6 11.5645 29 12.6645Z" fill="#525C65"/>
  <path d="M2 17.5645C2 19.2645 6 21.9645 7.5 21.3645C8.4 21.0645 10.1 21.4645 11.2 22.2645C12.7 23.2645 13.8 23.3645 15.2 22.6645C16.4 22.0645 17.6 22.0645 18.9 22.6645C20.2 23.3645 21.3 23.2645 22.6 22.2645C23.7 21.4645 25.4 21.0645 26.5 21.3645C27.8 21.6645 29.3 21.0645 30.5 19.8645C32.6 17.4645 31.8 15.8645 29.5 17.7645C26.3 20.3645 7.4 20.5645 4.8 17.9645C3.4 16.5645 2 16.3645 2 17.5645Z" fill="#525C65"/>
  <path d="M3 23.5645C3 26.3645 11.6 30.7645 17 30.7645C21.3 30.7645 27.7 28.0645 30 25.2645C32.2 22.5645 30.4 22.5645 26.5 25.1645C21.3 28.7645 16.8 29.3645 11.5 27.3645C9.1 26.3645 6.6 24.9645 6 24.1645C4.6 22.6645 3 22.2645 3 23.5645Z" fill="#525C65"/>
  <path d="M47.1035 9.37695L47.2002 10.6768C48.0238 9.66699 49.1374 9.16211 50.541 9.16211C52.0378 9.16211 53.0654 9.75293 53.624 10.9346C54.4404 9.75293 55.6042 9.16211 57.1152 9.16211C58.3757 9.16211 59.3138 9.53092 59.9297 10.2686C60.5456 10.999 60.8535 12.1019 60.8535 13.5771V21H57.7383V13.5879C57.7383 12.929 57.6094 12.4492 57.3516 12.1484C57.0938 11.8405 56.639 11.6865 55.9873 11.6865C55.0563 11.6865 54.4118 12.1305 54.0537 13.0186L54.0645 21H50.96V13.5986C50.96 12.9255 50.8275 12.4385 50.5625 12.1377C50.2975 11.8369 49.8464 11.6865 49.209 11.6865C48.3281 11.6865 47.6908 12.0518 47.2969 12.7822V21H44.1924V9.37695H47.1035ZM62.7656 15.0811C62.7656 13.9281 62.9876 12.9004 63.4316 11.998C63.8757 11.0957 64.513 10.3975 65.3438 9.90332C66.1816 9.40918 67.152 9.16211 68.2549 9.16211C69.8232 9.16211 71.1016 9.64193 72.0898 10.6016C73.0853 11.5612 73.6403 12.8646 73.7549 14.5117L73.7764 15.3066C73.7764 17.0898 73.2786 18.5221 72.2832 19.6035C71.2878 20.6777 69.9521 21.2148 68.2764 21.2148C66.6006 21.2148 65.2614 20.6777 64.2588 19.6035C63.2633 18.5293 62.7656 17.0684 62.7656 15.2207V15.0811ZM65.8701 15.3066C65.8701 16.4095 66.0778 17.2546 66.4932 17.8418C66.9085 18.4219 67.5029 18.7119 68.2764 18.7119C69.0283 18.7119 69.6156 18.4255 70.0381 17.8525C70.4606 17.2725 70.6797 16.4385 70.6953 15.3506C70.6797 14.2744 70.4492 13.4326 69.9941 12.8252C69.5479 12.2109 68.9525 11.9033 68.208 11.9033C67.4492 11.9033 66.8701 12.2148 66.4707 12.8379C66.0713 13.4492 65.8701 14.2871 65.8701 15.3506V15.3066Z" fill="white"/>
</svg>
